<svg width="120" height="40" viewBox="0 0 120 40" fill="none" xmlns="http://www.w3.org/2000/svg">
  <path d="M20 0H100C110.457 0 120 8.954 120 20C120 31.046 110.457 40 100 40H20C9.543 40 0 31.046 0 20C0 8.954 9.543 0 20 0Z" fill="#00348D"/>
  <path d="M35.5 10H25.5C24.672 10 24 10.672 24 11.5V28.5C24 29.328 24.672 30 25.5 30H35.5C36.328 30 37 29.328 37 28.5V11.5C37 10.672 36.328 10 35.5 10Z" fill="#E40613"/>
  <path d="M51.5 10H41.5C40.672 10 40 10.672 40 11.5V28.5C40 29.328 40.672 30 41.5 30H51.5C52.328 30 53 29.328 53 28.5V11.5C53 10.672 52.328 10 51.5 10Z" fill="white"/>
  <path d="M67.5 10H57.5C56.672 10 56 10.672 56 11.5V28.5C56 29.328 56.672 30 57.5 30H67.5C68.328 30 69 29.328 69 28.5V11.5C69 10.672 68.328 10 67.5 10Z" fill="white"/>
  <path d="M83.5 10H73.5C72.672 10 72 10.672 72 11.5V28.5C72 29.328 72.672 30 73.5 30H83.5C84.328 30 85 29.328 85 28.5V11.5C85 10.672 84.328 10 83.5 10Z" fill="white"/>
</svg>
